HIERARCHY
ROOT root
{
	OFFSET 0.000000 0.000000 0.000000
	CHANNELS 6 Xposition Yposition Zposition Zrotation Yrotation Xrotation
	JOINT lhip
	{
		OFFSET 0.058581 -0.082280 -0.017664
		CHANNELS 3 Zrotation Yrotation Xrotation
		JOINT lknee
		{
			OFFSET 0.043451 -0.386469 0.008037
			CHANNELS 3 Zrotation Yrotation Xrotation
			JOINT lankle
			{
				OFFSET -0.014790 -0.426874 -0.037428
				CHANNELS 3 Zrotation Yrotation Xrotation
				JOINT ltoe
				{
					OFFSET 0.041054 -0.060286 0.122042
					CHANNELS 3 Zrotation Yrotation Xrotation
					End Site
					{
						OFFSET 0.000000 0.000000 0.000000
					}
				}
			}
		}
	}
	JOINT rhip
	{
		OFFSET -0.060310 -0.090513 -0.013543
		CHANNELS 3 Zrotation Yrotation Xrotation
		JOINT rknee
		{
			OFFSET -0.043257 -0.383688 -0.004843
			CHANNELS 3 Zrotation Yrotation Xrotation
			JOINT rankle
			{
				OFFSET 0.019056 -0.420046 -0.034562
				CHANNELS 3 Zrotation Yrotation Xrotation
				JOINT rtoe
				{
					OFFSET -0.034840 -0.062106 0.130323
					CHANNELS 3 Zrotation Yrotation Xrotation
					End Site
					{
						OFFSET 0.000000 0.000000 0.000000
					}
				}
			}
		}
	}
	JOINT lowerback
	{
		OFFSET 0.004439 0.124404 -0.038385
		CHANNELS 3 Zrotation Yrotation Xrotation
		JOINT upperback
		{
			OFFSET 0.004488 0.137956 0.026820
			CHANNELS 3 Zrotation Yrotation Xrotation
			JOINT chest
			{
				OFFSET -0.002265 0.056032 0.002855
				CHANNELS 3 Zrotation Yrotation Xrotation
				JOINT lowerneck
				{
					OFFSET -0.013390 0.211636 -0.033468
					CHANNELS 3 Zrotation Yrotation Xrotation
					JOINT upperneck
					{
						OFFSET 0.010113 0.088937 0.050410
						CHANNELS 3 Zrotation Yrotation Xrotation
						End Site
						{
							OFFSET 0.000000 0.000000 0.000000
						}
					}
				}
				JOINT lclavicle
				{
					OFFSET 0.071702 0.114000 -0.018898
					CHANNELS 3 Zrotation Yrotation Xrotation
					JOINT lshoulder
					{
						OFFSET 0.122921 0.045205 -0.019046
						CHANNELS 3 Zrotation Yrotation Xrotation
						JOINT lelbow
						{
							OFFSET 0.255332 -0.015649 -0.022946
							CHANNELS 3 Zrotation Yrotation Xrotation
							JOINT lwrist
							{
								OFFSET 0.265709 0.012698 -0.007375
								CHANNELS 3 Zrotation Yrotation Xrotation
								End Site
								{
									OFFSET 0.000000 0.000000 0.000000
								}
							}
						}
					}
				}
				JOINT rclavicle
				{
					OFFSET -0.082954 0.112472 -0.023707
					CHANNELS 3 Zrotation Yrotation Xrotation
					JOINT rshoulder
					{
						OFFSET -0.113228 0.046853 -0.008472
						CHANNELS 3 Zrotation Yrotation Xrotation
						JOINT relbow
						{
							OFFSET -0.260127 -0.014369 -0.031269
							CHANNELS 3 Zrotation Yrotation Xrotation
							JOINT rwrist
							{
								OFFSET -0.269108 0.006794 -0.006027
								CHANNELS 3 Zrotation Yrotation Xrotation
								End Site
								{
									OFFSET 0.000000 0.000000 0.000000
								}
							}
						}
					}
				}
			}
		}
	}
}
MOTION
Frames: 16
Frame Time: 0.033333
-1.810599 0.292921 1.022661 90.477586 -1.262130 87.248433 -0.120858 1.821131 5.641290 -3.473408 -9.567456 2.583481 4.258035 8.870226 -11.204132 0.000000 -0.000000 0.000000 -4.650504 -3.127387 -6.780028 1.006347 -2.582742 23.557979 3.773245 -8.517454 -15.147637 0.000000 -0.000000 0.000000 -1.014422 -0.060323 9.653738 -0.266607 -0.930331 -2.074835 -0.813993 -1.245171 2.131809 3.947228 5.381751 -14.491362 -0.560186 -2.175580 1.638741 -29.267823 2.854193 -1.693170 -55.690744 -9.097681 9.109870 6.627771 -27.147046 5.260254 -2.818575 -3.166755 -5.473657 31.549275 -0.198801 -0.424375 56.204840 4.756088 12.022084 -16.457120 19.602783 -13.421447 4.828737 1.415637 -7.124518 
-1.811087 0.294105 1.022941 90.876465 -0.976238 87.158019 0.080378 1.567320 5.537353 -3.416100 -9.549945 2.708100 3.934686 8.823460 -11.044121 0.000000 -0.000000 0.000000 -4.522395 -3.441511 -6.200880 0.941398 -2.998778 22.762667 3.611300 -8.201755 -14.761014 0.000000 -0.000000 0.000000 -0.958925 0.792327 8.913235 -0.046467 -0.527018 -1.305995 -0.413738 -1.648267 2.323130 3.755644 5.241752 -13.786646 -0.660709 -1.956541 1.640391 -29.328291 1.988937 -1.010236 -56.288424 -9.440502 9.188589 7.359736 -26.551470 4.605925 -2.971486 -3.633356 -5.617742 31.263975 -0.065459 -0.438421 56.151149 4.805054 11.972096 -16.480026 20.064716 -13.142747 5.123189 1.347164 -7.650054 
-1.811444 0.294790 1.023600 91.075547 -0.808206 87.292099 0.191309 1.382936 5.238012 -3.420640 -9.579841 2.907339 3.955321 8.819136 -11.030859 0.000000 -0.000000 0.000000 -4.488070 -3.479553 -5.964911 1.133334 -3.113304 22.083132 3.620211 -8.259685 -14.424455 0.000000 -0.000000 0.000000 -0.925497 0.840560 8.784092 0.034640 -0.337385 -1.688127 -0.255138 -1.364903 2.265456 3.907000 5.010901 -13.302326 -0.838887 -2.015603 2.196304 -29.251001 2.455313 -1.270678 -56.646417 -9.245781 9.219911 7.097592 -25.926018 5.030578 -3.223429 -3.120248 -5.236278 31.214683 -0.407918 -0.542511 56.257711 4.811120 12.119866 -16.356310 20.249882 -12.840552 5.361622 1.407322 -7.417434 
-1.812106 0.295901 1.023622 91.446332 -0.749323 87.152086 0.143873 1.213290 5.257543 -3.348503 -9.682603 3.034724 4.037165 8.666172 -11.060149 0.000000 -0.000000 0.000000 -4.578266 -3.648127 -5.742818 1.203773 -3.294707 22.040901 3.576735 -8.182536 -14.221010 0.000000 -0.000000 0.000000 -1.024339 1.044316 8.749453 0.131305 -0.322094 -1.501767 -0.061715 -1.304842 2.093741 3.839747 5.371814 -13.251854 -0.926243 -1.571519 2.858582 -29.181990 2.609634 -0.908017 -56.639399 -9.058720 9.151763 7.095561 -25.750150 4.851159 -4.212290 -3.276102 -5.017898 31.236776 -0.207261 -0.441979 56.084887 5.242852 12.096725 -15.921934 20.499150 -13.041558 7.648867 1.501295 -7.640352 
-1.813290 0.296303 1.023197 91.606876 -0.746649 86.917014 0.127945 1.073144 5.418175 -3.392084 -9.654840 3.070939 4.086200 8.674391 -11.013072 0.000000 -0.000000 0.000000 -4.616641 -3.721983 -5.782930 1.103349 -3.438428 22.455814 3.820347 -8.090237 -14.261552 0.000000 -0.000000 0.000000 -1.229492 1.394091 8.657440 0.250863 -0.202170 -0.900987 0.145154 -1.441996 2.172565 3.945701 5.378362 -13.479365 -1.071936 -1.586477 2.722823 -29.251075 2.222366 -0.665350 -56.473905 -9.207364 9.145446 7.149633 -25.550092 4.438534 -4.803292 -3.368231 -4.639150 31.101927 0.157088 -0.614547 56.024322 5.556970 12.139183 -15.484566 20.936883 -13.340526 9.551330 1.524488 -8.088354 
-1.814426 0.296913 1.022785 91.868449 -0.866039 86.681409 -0.024411 1.118191 5.586745 -3.436564 -9.912301 3.179633 4.170301 8.637087 -11.097870 0.000000 -0.000000 0.000000 -4.748854 -3.740931 -5.901139 1.001540 -3.526228 23.088428 3.833313 -8.027992 -14.476686 0.000000 -0.000000 0.000000 -1.364524 1.199767 9.251025 0.097373 -0.332265 -1.109719 0.097188 -1.229184 1.994233 3.961747 5.787185 -13.061667 -0.718913 -1.084002 2.510811 -28.991484 2.208831 -0.433830 -56.089433 -8.703154 8.907099 7.014170 -25.346976 4.308314 -5.398519 -3.299076 -4.489190 31.118883 0.478855 -0.380096 56.159056 5.670640 12.268376 -15.025031 22.276039 -13.222850 11.139550 1.409681 -8.446617 
-1.815979 0.297582 1.022357 92.152437 -0.946423 86.363717 -0.146596 1.126677 5.785965 -3.463813 -10.158605 3.300351 4.152352 8.592344 -11.135689 0.000000 -0.000000 0.000000 -4.804342 -3.833313 -5.894137 0.847212 -3.556307 23.637344 3.625349 -8.345770 -14.788599 0.000000 -0.000000 0.000000 -1.372122 1.419921 9.531184 0.056091 -0.340911 -0.678522 0.092290 -1.446009 2.195703 3.887301 5.949036 -13.653002 -0.650940 -1.083061 2.371004 -28.976774 1.538526 -0.335301 -55.641403 -8.542172 8.741690 6.863887 -24.531195 4.207086 -5.286030 -3.472605 -4.352846 30.977290 0.888417 -0.443361 56.285058 5.708361 12.605515 -14.924131 24.254033 -12.929734 11.112935 1.818449 -8.961107 
-1.817144 0.298694 1.022272 92.709692 -1.076952 86.272480 -0.292110 1.231067 5.592507 -3.576277 -10.542892 3.663805 4.201184 8.379877 -11.288100 0.000000 -0.000000 0.000000 -5.011120 -4.030834 -5.797418 0.863074 -3.551409 23.724055 3.614982 -8.477771 -14.915516 0.000000 -0.000000 0.000000 -1.261630 1.356277 9.885078 -0.050280 -0.587237 -0.789292 -0.033236 -1.456697 2.189056 3.746558 5.882457 -13.753426 -0.729885 -1.080196 2.559701 -29.002499 1.256496 -0.555188 -55.178905 -8.219760 8.496350 6.421244 -23.056066 4.630940 -5.045083 -3.451183 -4.044406 31.105082 1.087659 -0.300613 56.428419 5.591583 12.995223 -15.238809 26.002991 -12.448592 10.110791 2.140596 -9.031865 
-1.818036 0.299280 1.022277 93.021418 -1.070276 86.331929 -0.231312 1.234000 5.392457 -3.671616 -10.520617 3.735330 4.072110 8.043875 -11.160955 0.000000 -0.000000 0.000000 -5.101616 -4.177938 -5.580540 0.942588 -3.647261 23.215189 3.509142 -8.583505 -14.678524 0.000000 -0.000000 0.000000 -1.112604 1.511737 9.737135 -0.025737 -0.632697 -0.659747 -0.021859 -1.569905 2.214019 3.663717 5.561002 -13.225875 -0.848841 -1.196283 2.421744 -29.031387 0.878372 -0.588303 -55.187681 -8.054294 8.274852 6.590488 -21.638970 4.661372 -4.466108 -3.384836 -3.983570 30.914473 0.973038 -0.185347 56.673031 5.632015 13.144827 -15.574844 27.555640 -12.099702 8.443484 2.291573 -9.304727 
-1.819364 0.299885 1.022641 93.353290 -0.943479 86.508559 -0.100988 1.206641 5.011439 -3.711141 -10.687224 3.803295 4.023812 7.931340 -10.941796 0.000000 -0.000000 0.000000 -4.965252 -4.197842 -5.553344 0.925898 -3.644331 22.736352 3.579186 -8.720760 -14.527448 0.000000 -0.000000 0.000000 -0.892447 1.653140 9.385908 0.078915 -0.571821 -0.534285 0.012152 -1.706747 2.238737 3.484144 5.492329 -12.944620 -1.139856 -1.243689 2.832302 -29.146975 0.874713 -0.886144 -55.508476 -8.012021 8.217836 7.030810 -20.092245 4.659474 -3.847083 -3.036299 -3.456758 30.783682 0.817457 -0.240546 56.913935 5.794648 13.299891 -16.159118 28.187738 -12.316461 7.042695 2.447744 -9.508841 
-1.820839 0.300522 1.023297 93.615638 -0.820976 86.531026 -0.004561 1.174919 4.817802 -3.677707 -10.703143 3.878774 3.880576 7.692727 -10.914146 0.000000 -0.000000 0.000000 -4.948447 -4.417781 -5.371244 1.064527 -3.628045 22.256580 3.534985 -8.616576 -14.378290 0.000000 -0.000000 0.000000 -0.721534 1.745388 9.424476 0.142401 -0.588462 -0.572551 0.069744 -1.611783 2.201286 3.612987 5.299053 -13.044908 -1.480483 -1.442875 3.182166 -29.250786 0.941819 -0.912702 -55.714662 -8.036257 8.187909 7.203964 -19.547064 4.490481 -3.739147 -2.692333 -3.379415 30.933422 0.841765 -0.280211 56.673874 5.935737 13.186776 -16.397038 28.054611 -12.916865 6.564793 2.539676 -9.629980 
-1.822525 0.300642 1.023457 93.731683 -0.845244 86.707568 -0.052204 1.183885 4.571207 -3.652191 -10.835965 3.681760 3.730686 7.582791 -10.643479 0.000000 -0.000000 0.000000 -5.005480 -4.354772 -5.727413 1.108452 -3.737248 22.361292 3.714056 -8.668513 -14.447983 0.000000 -0.000000 0.000000 -0.833195 1.642409 9.535092 0.186689 -0.519196 -0.836134 0.170002 -1.508761 2.115260 3.530728 5.563528 -12.770452 -1.575810 -1.294145 3.377041 -29.286104 1.368886 -1.004116 -55.783697 -7.873546 8.203201 7.095783 -19.869376 4.269098 -3.672185 -2.778700 -3.574963 31.045190 0.871739 -0.292798 56.490751 6.116759 13.188813 -16.542931 27.725147 -13.110161 6.552906 2.416012 -9.316397 
-1.824140 0.300674 1.023319 93.709133 -0.873653 86.656000 -0.132423 0.991258 4.610638 -3.613682 -10.798849 3.571918 3.991330 7.820477 -10.675196 0.000000 -0.000000 0.000000 -5.079864 -4.226699 -5.971353 1.090659 -4.016128 22.734819 3.990354 -8.609224 -14.523444 0.000000 -0.000000 0.000000 -0.987262 1.595965 9.898485 0.200365 -0.397101 -1.023138 0.259741 -1.286348 2.053430 3.496180 5.948977 -12.546332 -1.485213 -1.075835 3.537356 -29.027936 1.800676 -1.073675 -56.041068 -7.865527 8.366152 6.845131 -20.587481 4.521350 -4.125379 -2.861474 -3.942033 31.106506 0.955597 -0.348215 56.374645 6.497545 13.116793 -16.563567 26.698515 -13.169559 7.107112 2.402686 -8.939580 
-1.825448 0.300527 1.023113 93.743625 -0.881869 86.541193 -0.058672 1.125836 4.640526 -3.735892 -10.947991 3.617262 3.984745 7.752222 -10.711412 0.000000 -0.000000 0.000000 -5.091215 -4.392346 -6.161313 1.101180 -3.957798 23.140080 3.786296 -8.363973 -14.756180 0.000000 -0.000000 0.000000 -1.096646 1.586486 10.287370 0.217088 -0.293873 -1.149449 0.315466 -1.237968 1.973814 3.546699 6.144815 -12.604656 -1.487423 -0.979233 3.490651 -29.093311 1.997690 -0.978156 -55.868380 -7.701341 8.487343 6.652470 -21.575591 4.702752 -4.522642 -2.881142 -3.788489 31.205796 1.076859 -0.439099 56.140091 6.695279 12.867763 -16.316389 25.834393 -13.395587 8.290317 2.016759 -8.600362 
-1.826977 0.300221 1.022645 93.778078 -0.953529 86.397140 -0.145206 0.994450 4.722044 -3.688821 -10.843887 3.555659 3.984292 7.766539 -10.584346 0.000000 -0.000000 0.000000 -5.134201 -4.387399 -6.159861 1.050956 -3.919187 23.232584 3.640430 -8.393304 -14.857731 0.000000 -0.000000 0.000000 -1.261412 1.895497 10.167964 0.330722 -0.205896 -0.480221 0.439563 -1.346019 2.122038 4.073395 5.717054 -13.188757 -1.879547 -1.440705 2.984341 -29.326448 1.542567 -0.791743 -55.641010 -8.036638 8.715193 6.608611 -22.370915 4.500748 -4.955014 -2.975012 -3.874248 31.192529 1.550735 -0.638199 55.890970 6.975406 12.708739 -16.208830 24.987120 -14.135410 9.195620 1.803097 -8.823670 
-1.827067 0.299535 1.022764 93.796177 -0.923932 86.271021 -0.074425 1.003646 4.898745 -3.682958 -10.876502 3.409998 3.904079 7.811167 -10.494655 0.000000 -0.000000 0.000000 -4.964224 -4.380965 -5.848390 0.898546 -3.880864 22.942184 3.591591 -8.414748 -14.873523 0.000000 -0.000000 0.000000 -1.274104 1.995711 10.017156 0.372440 -0.163580 -0.193560 0.437973 -1.274638 2.200262 4.099937 5.735366 -12.999335 -1.659062 -1.485446 3.243752 -29.340465 1.404176 -0.711060 -55.634624 -8.225798 8.869664 6.551720 -22.770765 4.700995 -4.862402 -3.049255 -3.678862 31.171227 1.593852 -0.606657 55.691586 6.907184 12.582434 -15.895295 24.523167 -14.046048 9.441605 1.745578 -9.047294 
